<?xml version="1.0" encoding="utf-8"?>
<!-- Generator: Adobe Illustrator 19.1.0, SVG Export Plug-In . SVG Version: 6.00 Build 0)  -->
<svg version="1.1" id="Layer_2" xmlns="http://www.w3.org/2000/svg" xmlns:xlink="http://www.w3.org/1999/xlink" x="0px" y="0px"
	 viewBox="0 0 595.3 595.3" style="enable-background:new 0 0 595.3 595.3;" xml:space="preserve">
<style type="text/css">
	.st0{fill:none;stroke:#FFFFFF;stroke-width:9;stroke-miterlimit:10;}
</style>
<g>
	<path class="st0" d="M231.9,305.6L90.8,209.2c-0.5-0.3-0.8-1-0.8-1.6v-87.9c0-0.6,0-1.5,0-2V94.8"/>
</g>
<line class="st0" x1="90" y1="118.7" x2="124.2" y2="76.8"/>
<polyline class="st0" points="90,169.3 68.2,150.9 68.2,133 "/>
<circle class="st0" cx="90" cy="87.2" r="6.9"/>
<circle class="st0" cx="128.8" cy="71.2" r="6.9"/>
<circle class="st0" cx="68.2" cy="125.7" r="6.9"/>
<circle class="st0" cx="127.7" cy="194.5" r="6.9"/>
<line class="st0" x1="127.7" y1="201.5" x2="127.7" y2="234.5"/>
<circle class="st0" cx="165.9" cy="220.5" r="6.9"/>
<line class="st0" x1="165.9" y1="227.5" x2="165.9" y2="260.5"/>
<circle class="st0" cx="203.1" cy="246.9" r="6.9"/>
<line class="st0" x1="203.1" y1="253.8" x2="203.1" y2="286.8"/>
<g>
	<path class="st0" d="M278.6,283h49.6c0.6,0,1.3,0.4,1.6,0.8l20.7,29.7c0.3,0.5,0.9,0.6,1.4,0.3l152.6-104.6c0.5-0.3,0.8-1,0.8-1.6
		v-87.9c0-0.6,0-1.5,0-2V94.8"/>
</g>
<line class="st0" x1="505.3" y1="118.7" x2="471.1" y2="76.8"/>
<polyline class="st0" points="505.3,169.3 527.1,150.9 527.1,133 "/>
<circle class="st0" cx="505.3" cy="87.2" r="6.9"/>
<circle class="st0" cx="466.4" cy="71.2" r="6.9"/>
<circle class="st0" cx="527.1" cy="125.7" r="6.9"/>
<circle class="st0" cx="467.6" cy="194.5" r="6.9"/>
<line class="st0" x1="467.6" y1="201.5" x2="467.6" y2="234.5"/>
<circle class="st0" cx="429.4" cy="220.5" r="6.9"/>
<line class="st0" x1="429.4" y1="227.5" x2="429.4" y2="260.5"/>
<circle class="st0" cx="392.2" cy="246.9" r="6.9"/>
<line class="st0" x1="392.2" y1="253.8" x2="392.2" y2="286.8"/>
<circle class="st0" cx="237.8" cy="309.3" r="6.9"/>
<circle class="st0" cx="271.6" cy="283" r="6.9"/>
<g>
	<path class="st0" d="M301.5,450.4H278c-0.5,0-1.3-0.3-1.7-0.7l-36.9-39.2c-0.4-0.4-0.8-0.3-0.9,0.3l-23.9,124.5
		c-0.1,0.5,0.3,1,0.8,1h161.8c0.5,0,0.9-0.4,0.8-1L356,424.8"/>
</g>
<circle class="st0" cx="308.4" cy="450.5" r="6.9"/>
<circle class="st0" cx="354.7" cy="419.2" r="6.9"/>
</svg>
